<?xml version="1.0" encoding="UTF-8"?>
<svg width="745px" height="590px" viewBox="0 0 745 590" version="1.1" xmlns="http://www.w3.org/2000/svg" xmlns:xlink="http://www.w3.org/1999/xlink">
    <!-- Generator: Sketch 52.5 (67469) - http://www.bohemiancoding.com/sketch -->
    <title>Group 2</title>
    <desc>Created with Sketch.</desc>
    <defs>
        <linearGradient x1="50%" y1="0%" x2="50%" y2="97.6322745%" id="linearGradient-1">
            <stop stop-color="#FFEEE3" offset="0%"></stop>
            <stop stop-color="#FEE3D3" offset="60.5917441%"></stop>
            <stop stop-color="#FFCDB0" offset="100%"></stop>
        </linearGradient>
        <linearGradient x1="11.2577068%" y1="0%" x2="62.5113181%" y2="100%" id="linearGradient-2">
            <stop stop-color="#4BAFFF" offset="0%"></stop>
            <stop stop-color="#3EA2FF" offset="34.551837%"></stop>
            <stop stop-color="#0063E1" offset="100%"></stop>
        </linearGradient>
        <linearGradient x1="50%" y1="0%" x2="50%" y2="100%" id="linearGradient-3">
            <stop stop-color="#007AC6" offset="0%"></stop>
            <stop stop-color="#00367B" offset="100%"></stop>
        </linearGradient>
        <linearGradient x1="50%" y1="0%" x2="50%" y2="100%" id="linearGradient-4">
            <stop stop-color="#FF8EA2" offset="0%"></stop>
            <stop stop-color="#CA3B54" offset="100%"></stop>
        </linearGradient>
        <linearGradient x1="50%" y1="100%" x2="50%" y2="0%" id="linearGradient-5">
            <stop stop-color="#A01A31" offset="0%"></stop>
            <stop stop-color="#F48195" offset="100%"></stop>
        </linearGradient>
        <linearGradient x1="10.8377215%" y1="0%" x2="50%" y2="100%" id="linearGradient-6">
            <stop stop-color="#94EBFF" offset="0%"></stop>
            <stop stop-color="#7DE4FC" offset="32.1843328%"></stop>
            <stop stop-color="#12C6EF" offset="100%"></stop>
        </linearGradient>
        <linearGradient x1="63.3604493%" y1="0%" x2="50%" y2="100%" id="linearGradient-7">
            <stop stop-color="#94EBFF" offset="0%"></stop>
            <stop stop-color="#7DE4FC" offset="32.1843328%"></stop>
            <stop stop-color="#12C6EF" offset="100%"></stop>
        </linearGradient>
        <linearGradient x1="50%" y1="0%" x2="50%" y2="100%" id="linearGradient-8">
            <stop stop-color="#1DC6E4" offset="0%"></stop>
            <stop stop-color="#18BDE1" offset="48.6724029%"></stop>
            <stop stop-color="#08A3D9" offset="100%"></stop>
        </linearGradient>
    </defs>
    <g id="Site" stroke="none" stroke-width="1" fill="none" fill-rule="evenodd">
        <g id="登录" transform="translate(-246.000000, -231.000000)">
            <g id="Group-2" transform="translate(247.000000, 233.000000)">
                <circle id="Oval" fill="#EBF4FB" cx="473.630332" cy="49" r="40"></circle>
                <circle id="Oval" stroke="#E9F4FD" stroke-width="4" cx="473.630332" cy="49" r="49"></circle>
                <rect id="Rectangle-Copy-19" fill="#EBF4FB" x="223.630332" y="98" width="500" height="346" rx="8"></rect>
                <rect id="Rectangle" fill="#C3E8FF" x="203.630332" y="49" width="540" height="374" rx="8"></rect>
                <path d="M522.630332,88 L743.630332,88 L743.630332,415 C743.630332,419.418278 740.04861,423 735.630332,423 L530.630332,423 C526.212054,423 522.630332,419.418278 522.630332,415 L522.630332,88 Z" id="Rectangle" fill="#0070FF"></path>
                <rect id="Rectangle" fill="#0070FF" x="267.630332" y="121" width="219" height="181" rx="16"></rect>
                <rect id="Rectangle" fill="#4BAFFF" x="300.630332" y="103" width="153" height="96" rx="8"></rect>
                <rect id="Rectangle-Copy-20" fill="#E69500" x="316.630332" y="160" width="121" height="27" rx="13.5"></rect>
                <rect id="Rectangle" fill="#FFA500" x="316.630332" y="156" width="121" height="27" rx="13.5"></rect>
                <path d="M271.630332,331 L349.630332,331 C351.839471,331 353.630332,332.790861 353.630332,335 C353.630332,337.209139 351.839471,339 349.630332,339 L271.630332,339 C269.421193,339 267.630332,337.209139 267.630332,335 C267.630332,332.790861 269.421193,331 271.630332,331 Z M269.630332,373 L304.630332,373 C305.734901,373 306.630332,373.895431 306.630332,375 C306.630332,376.104569 305.734901,377 304.630332,377 L269.630332,377 C268.525762,377 267.630332,376.104569 267.630332,375 C267.630332,373.895431 268.525762,373 269.630332,373 Z M271.630332,347 L349.630332,347 C351.839471,347 353.630332,348.790861 353.630332,351 C353.630332,353.209139 351.839471,355 349.630332,355 L271.630332,355 C269.421193,355 267.630332,353.209139 267.630332,351 C267.630332,348.790861 269.421193,347 271.630332,347 Z M269.630332,363 L321.630332,363 C322.734901,363 323.630332,363.895431 323.630332,365 C323.630332,366.104569 322.734901,367 321.630332,367 L269.630332,367 C268.525762,367 267.630332,366.104569 267.630332,365 C267.630332,363.895431 268.525762,363 269.630332,363 Z M269.630332,383 L321.630332,383 C322.734901,383 323.630332,383.895431 323.630332,385 C323.630332,386.104569 322.734901,387 321.630332,387 L269.630332,387 C268.525762,387 267.630332,386.104569 267.630332,385 C267.630332,383.895431 268.525762,383 269.630332,383 Z" id="Combined-Shape" fill="#4BAFFF" opacity="0.413713728"></path>
                <path d="M585.130332,265 L696.130332,265 C698.063328,265 699.630332,266.567003 699.630332,268.5 L699.630332,269.5 C699.630332,271.432997 698.063328,273 696.130332,273 L585.130332,273 C583.197335,273 581.630332,271.432997 581.630332,269.5 L581.630332,268.5 C581.630332,266.567003 583.197335,265 585.130332,265 Z M585.130332,287 L677.130332,287 C679.063328,287 680.630332,288.567003 680.630332,290.5 L680.630332,292.5 C680.630332,294.432997 679.063328,296 677.130332,296 L585.130332,296 C583.197335,296 581.630332,294.432997 581.630332,292.5 L581.630332,290.5 C581.630332,288.567003 583.197335,287 585.130332,287 Z M585.130332,309 L696.130332,309 C698.063328,309 699.630332,310.567003 699.630332,312.5 L699.630332,313.5 C699.630332,315.432997 698.063328,317 696.130332,317 L585.130332,317 C583.197335,317 581.630332,315.432997 581.630332,313.5 L581.630332,312.5 C581.630332,310.567003 583.197335,309 585.130332,309 Z M585.130332,331 L690.130332,331 C692.063328,331 693.630332,332.567003 693.630332,334.5 L693.630332,335.5 C693.630332,337.432997 692.063328,339 690.130332,339 L585.130332,339 C583.197335,339 581.630332,337.432997 581.630332,335.5 L581.630332,334.5 C581.630332,332.567003 583.197335,331 585.130332,331 Z" id="Combined-Shape" fill="#4BAFFF"></path>
                <g id="Group" transform="translate(556.630332, 110.000000)">
                    <circle id="Oval" fill="#8CCBF2" opacity="0.374697731" cx="75.6811388" cy="57.5" r="57.5"></circle>
                    <path d="M141.386425,34.0743024 C144.482202,41.9555711 146.181139,50.5307886 146.181139,59.5 C146.181139,84.7457324 132.721148,106.870012 112.537884,119.183897 L96.6548715,92.1530645 C108.360115,85.0532761 116.181139,72.189987 116.181139,57.5 C116.181139,53.5141843 115.605361,49.6628488 114.532442,46.0246312 L141.386425,34.0743024 Z" id="Combined-Shape" fill="#4BAFFF"></path>
                    <path d="M47.2539414,123.57635 C25.5294927,114.06078 9.55732122,93.9727347 5.95069368,69.8785767 L35.1811388,66.0429688 L36.2927842,66.9635473 C39.380414,79.8616297 48.6389768,90.3615687 60.7730771,95.1679688 L59.2436388,95.1679688 L47.2539414,123.57635 Z" id="Combined-Shape" fill="#4BAFFF"></path>
                    <path d="M0,70.6594245 C4.01714309,97.7811699 22.4550498,120.242416 47.3271567,130.108799 M115.161036,124.610424 C137.346979,111.304655 152.181139,87.1233569 152.181139,59.5 C152.181139,49.2949188 150.156521,39.5596216 146.484563,30.6689189" id="Shape" stroke="#4BAFFF" stroke-width="4" stroke-linecap="round"></path>
                    <circle id="Oval" stroke="#4BAFFF" stroke-width="4" cx="75.6811388" cy="57.5" r="40.5"></circle>
                </g>
                <circle id="Oval" fill="#FFA500" cx="317.130332" cy="251.5" r="23.5"></circle>
                <circle id="Oval-Copy-5" fill="#FFA500" cx="377.130332" cy="251.5" r="23.5"></circle>
                <circle id="Oval-Copy-6" fill="#FFA500" cx="437.130332" cy="251.5" r="23.5"></circle>
                <path d="M166.16915,287.68335 C162.500937,283.57666 158.202841,277.751709 154.614707,273.639404 C151.026572,269.5271 144.614707,262.554199 144.614707,258.825195 C144.614707,255.096191 144.89913,248.030273 145.31832,238.312012 C145.737509,228.59375 148.044543,216.713501 148.576526,215.43103 C149.108508,214.14856 151.692099,210.713623 152.771445,209.625244 C153.850791,208.536865 156.620566,203.789551 157.483359,202.212891 C158.346152,200.63623 159.168418,198.784668 158.757285,198.366943 C158.346152,197.949219 157.277182,198.139893 156.250571,198.976807 C155.22396,199.813721 153.7358,203.03418 153.253623,202.623535 C152.771445,202.212891 153.588095,198.743164 154.614707,197.086914 C155.641318,195.430664 156.29769,193.418335 156.574668,191.509277 C156.851645,189.60022 155.240927,188.451782 153.253623,188.72998 C151.266318,189.008179 145.701865,192.677979 144.614707,198.976807 C143.527548,205.275635 142.666464,209.618652 141.913535,212.38623 C141.160605,215.153809 138.016074,223.665527 135.807089,231.978027 C133.598105,240.290527 130.36373,256.84375 131.049277,261.20459 C131.734824,265.56543 137.864491,276.67719 144.126425,286.453613 C146.852988,290.710449 151.201132,297.649902 155.566512,303.984375 C155.377553,301.950928 155.377553,298.474364 157.934043,293.324707 C159.91018,289.34408 163.876914,286.453613 166.16915,287.68335 Z" id="Path-2" fill="url(#linearGradient-1)"></path>
                <path d="M165.73873,399.727539 C156.260214,436.867513 151.520957,459.484375 151.520957,467.578125 C151.520957,479.71875 151.520957,503.926758 151.520957,517.111328 C151.520957,530.295898 149.325644,561.856445 147.221152,565.105469 C145.11666,568.354492 138.879355,574.222656 135.050254,575.907227 C131.221152,577.591797 118.181113,581.032227 118.181113,582.783203 C118.181113,584.53418 126.073691,587.535156 130.561972,587.535156 C135.050254,587.535156 144.199668,585.826172 149.170371,585.826172 C154.141074,585.826172 161.254355,585.049316 162.195273,582.783203 C163.136191,580.51709 161.914442,576.953002 160.967246,574.952148 C160.047663,573.009627 159.495078,571.104201 159.495078,569.588867 C159.495078,566.512695 160.533652,560.047852 163.136191,551.086914 C165.73873,542.125977 175.157675,518.120605 176.465293,505.875977 C177.77291,493.631348 173.537558,481.197266 175.001425,474.387695 C175.977337,469.847982 179.854941,460.57194 186.634238,446.55957 C198.498231,462.131836 208.424013,472.888997 216.411582,478.831055 C228.392935,487.744141 263.781699,516.105957 270.700644,521.45752 C277.619589,526.809082 288.873007,537.341797 290.430625,540.459961 C291.988242,543.578125 289.644492,551.53418 287.839804,555.96582 C286.035117,560.397461 278.577597,567.222656 278.577597,569.588867 C278.577597,571.955078 287.195273,573.358887 292.179648,570.413574 C297.164023,567.468262 301.737754,558.982422 304.627402,554.011719 C307.51705,549.041016 310.05416,546.637695 310.05416,544.229492 C310.05416,541.821289 303.418418,538.382324 301.269004,536.520996 C299.119589,534.659668 286.936484,516.066406 281.345175,507.937988 C275.753867,499.80957 267.309043,490.373047 261.889121,486.348633 C256.469199,482.324219 246.453574,476.921875 243.019004,472.25 C239.584433,467.578125 216.411582,424.513672 216.411582,422.712891 C216.411582,420.912109 219.313437,414.683105 219.313437,407.84952 C219.313437,403.293796 218.460491,399.124311 216.754599,395.341064 C215.370647,401.335531 211.055625,405.197591 203.809531,406.927246 C192.94039,409.521729 186.860068,407.849121 179.690146,406.512207 C174.910198,405.620931 170.259726,403.359375 165.73873,399.727539 Z" id="Path-4" fill="url(#linearGradient-1)"></path>
                <path d="M285.310268,560.063523 C282.469207,563.843384 278.577597,567.879557 278.577597,569.588867 C278.577597,571.955078 287.195273,573.358887 292.179648,570.413574 C297.164023,567.468262 301.737754,558.982422 304.627402,554.011719 C307.51705,549.041016 310.05416,546.637695 310.05416,544.229492 C310.05416,541.821289 303.418418,538.382324 301.269004,536.520996 C301.269004,538.670898 305.203574,548.471191 298.715293,556.757324 C294.001247,562.777594 287.968222,561.419434 285.310268,560.063523 Z" id="Path-4" fill="#2C2E3C"></path>
                <path d="M141.165,582.124023 C134.75883,582.124023 130.561972,580.268084 129.252648,577.957906 C124.194021,579.62617 118.181113,581.5942 118.181113,582.783203 C118.181113,584.53418 126.073691,587.535156 130.561972,587.535156 C135.050254,587.535156 144.199668,585.826172 149.170371,585.826172 C154.141074,585.826172 161.254355,585.049316 162.195273,582.783203 C163.136191,580.51709 161.914442,576.953002 160.967246,574.952148 C160.673206,574.33102 160.416689,573.713685 160.203762,573.111682 C158.030722,574.952148 149.170371,582.124023 141.165,582.124023 Z" id="Path-4" fill="#2C2E3C"></path>
                <path d="M165.73873,399.727539 C156.260214,436.867513 151.520957,459.484375 151.520957,467.578125 C151.520957,479.71875 151.520957,503.926758 151.520957,517.111328 C151.520957,530.295898 149.325644,561.856445 147.221152,565.105469 C145.11666,568.354492 159.495078,571.104201 159.495078,569.588867 C159.495078,566.512695 160.533652,560.047852 163.136191,551.086914 C165.73873,542.125977 175.157675,518.120605 176.465293,505.875977 C177.77291,493.631348 173.537558,481.197266 175.001425,474.387695 C175.977337,469.847982 179.854941,460.57194 186.634238,446.55957 C198.498231,462.131836 208.424013,472.888997 216.411582,478.831055 C228.392935,487.744141 263.781699,516.105957 270.700644,521.45752 C277.12352,526.42539 287.145381,535.990969 289.951241,539.679568 C290.814902,540.814941 299.467579,534.414908 297.839108,532.138941 C293.217993,525.680423 285.479542,513.948363 281.345175,507.937988 C275.753867,499.80957 267.309043,490.373047 261.889121,486.348633 C256.469199,482.324219 246.453574,476.921875 243.019004,472.25 C239.584433,467.578125 216.411582,424.513672 216.411582,422.712891 C216.411582,420.912109 219.313437,414.683105 219.313437,407.84952 C219.313437,403.293796 218.346152,398.854861 216.411582,394.532715 C213.679908,401.627501 209.097551,405.620665 202.664511,406.512207 C193.014952,407.84952 186.02706,407.201571 179.082968,405.864258 C174.453574,404.972716 170.005494,402.927143 165.73873,399.727539 Z" id="Path-4" fill="#2C2E3C"></path>
                <path d="M172.684531,293.811523 C166.016888,280.192057 167.359336,270.57666 176.711875,264.965332 C174.73664,255.553223 176.10513,248.326823 180.817343,243.286133 C187.885663,235.725098 195.900351,235.501801 203.496543,237.03125 C211.092734,238.560699 216.233847,243.94043 219.338339,251.268555 C221.408001,256.153971 222.259726,262.058105 221.893515,268.980957 C226.32125,269.200787 229.781862,271.718417 232.275351,276.533846 C234.768841,281.349276 234.768841,286.769146 232.275351,292.793457 C240.241823,292.926595 245.113242,297.237305 246.889609,305.725586 C249.55416,318.458008 237.06716,329.705078 228.392935,330.864258 C222.610119,331.637044 215.562461,330.175618 207.249961,326.47998 C190.873984,318.320475 179.352174,307.43099 172.684531,293.811523 Z" id="Path-5" fill="#2C2E3C"></path>
                <path d="M199.656699,306.416992 C196.031211,307.388672 191.979724,308.138184 188.480918,306.416992 C184.982111,304.695801 182.660849,299.998535 182.660849,297.054199 C179.506308,297.054199 175.594443,298.233154 171.92623,294.126465 C170.757517,292.81805 168.940466,290.681178 166.890795,288.243569 C162.507212,283.030313 152.453027,299.667724 156.51222,305.290036 C159.774564,309.808646 162.229209,313.24264 162.229209,313.958008 C162.229209,315.563477 163.512168,318.133301 162.229209,321.161377 C160.94625,324.189453 159.828818,325.717773 159.828818,330.23584 C159.828818,334.753906 163.014609,339.820313 164.112754,346.189453 C165.210898,352.558594 166.612998,369.596191 166.612998,377.778809 C166.612998,385.961426 165.652548,399.132568 165.73873,399.727539 C165.824912,400.32251 169.120322,404.552246 177.632041,406.144043 C186.143759,407.73584 198.312949,408.583252 203.251181,407.019775 C208.189414,405.456299 213.99166,402.503418 215.196494,400.226074 C216.401328,397.94873 217.641074,396.47998 214.237265,388.435059 C210.833457,380.390137 205.982138,369.369629 204.61666,362.924805 C203.251181,356.47998 203.251181,345.661621 204.61666,341.41748 C205.366027,339.088318 207.971152,335.372559 208.803671,333.760742 C209.636191,332.148926 212.007484,338.532775 212.855918,340.447754 C213.723401,342.40573 227.362754,334.380859 228.336386,332.234863 C229.310019,330.088867 217.418418,307.987305 215.196494,306.416992 C212.612173,304.590561 210.928183,305.791016 208.032187,303.475098 C206.191367,304.590561 203.282187,305.445312 199.656699,306.416992 Z" id="Path-2" fill="url(#linearGradient-2)"></path>
                <path d="M199.257461,337.378906 C201.031699,344.065918 197.59344,343.748828 195.401816,351 C193.210192,358.251172 199.607871,357.229492 196.815879,362.924805 C194.023886,368.620117 189.555136,374.853027 189.555136,383 C189.555136,391.146973 207.888518,389.890137 204.61666,397.446289 C201.344802,405.002441 169.120322,404.552246 177.632041,406.144043 C186.143759,407.73584 198.312949,408.583252 203.251181,407.019775 C208.189414,405.456299 213.99166,402.503418 215.196494,400.226074 C216.401328,397.94873 217.641074,396.47998 214.237265,388.435059 C210.833457,380.390137 205.982138,369.369629 204.61666,362.924805 C203.251181,356.47998 203.251181,345.661621 204.61666,341.41748 C205.366027,339.088318 207.971152,335.372559 208.803671,333.760742 C209.636191,332.148926 212.007484,338.532775 212.855918,340.447754 C213.723401,342.40573 211.882285,330.04541 212.855918,327.899414 C213.82955,325.753418 207.512656,328.570801 204.61666,326.254883 C202.775839,327.370346 197.483223,330.691895 199.257461,337.378906 Z" id="Path-2" fill="url(#linearGradient-3)" opacity="0.5"></path>
                <path d="M168.521894,346.362305 C168.521894,345.10791 175.833359,347 176.983847,347.547607 C178.134335,348.095215 183.473105,369.252441 183.473105,370.251953 C183.473105,370.918294 180.44804,370.104492 174.39791,367.810547 C170.480566,354.347982 168.521894,347.198568 168.521894,346.362305 Z" id="Path-22" fill="#2C2E3C"></path>
                <path d="M514.843222,350.609375 C517.473431,404.988281 518.788535,439.638672 518.788535,454.560547 C518.788535,469.482422 521.692587,499.726563 527.500693,545.292969 C527.476116,546.977865 529.25289,547.820312 532.831015,547.820312 C536.40914,547.820312 538.184856,546.977865 538.158164,545.292969 L555.108133,423 L589.511191,544.416016 C590.605918,545.820638 592.825644,546.112956 596.170371,545.292969 C599.515097,544.472982 601.20569,543.468262 601.242148,542.278809 L588.148276,350.609375 C567.526287,359.902344 552.341106,363.113932 542.592734,360.244141 C532.844362,357.374349 523.594524,354.16276 514.843222,350.609375 Z" id="Path-10" fill="#2C2E3C"></path>
                <path d="M212.855918,340.447754 L221.944296,359.555664 C216.160931,359.312826 211.346966,359.312826 207.502402,359.555664 C201.735556,359.919922 192.024375,359.555664 189.898398,359.555664 C187.772421,359.555664 185.893515,356.817383 183.343222,355.763672 C180.792929,354.709961 178.58541,353.947266 177.586875,353.947266 C176.921185,353.947266 177.692994,355.08252 179.902304,357.353027 C180.494752,357.353027 179.722942,357.353027 177.586875,357.353027 C175.450807,357.353027 173.077109,356.217773 170.465781,353.947266 C169.645468,358.165365 169.645468,360.812826 170.465781,361.889648 C171.69625,363.504883 176.844687,365.88916 178.373496,366.51709 C179.902304,367.14502 184.875937,365.88916 188.09664,366.51709 C191.317343,367.14502 204.342246,371.728027 213.430625,373.04248 C222.519004,374.356934 231.533164,376.178223 235.261679,373.412109 C238.990195,370.645996 236.782675,358.968262 235.261679,353.947266 C234.247682,350.599935 231.958101,343.291992 228.392935,332.023437 C227.154064,333.38444 224.736614,335.18278 221.140586,337.418457 C217.544557,339.654134 214.783001,340.6639 212.855918,340.447754 Z" id="Path-3" fill="url(#linearGradient-1)"></path>
                <path d="M194.036093,256.71167 C193.080039,259.212891 193.433069,264.061035 193.577353,265.56543 C193.721638,267.069824 195.104209,273.589355 195.750205,275.410889 C196.396201,277.232422 196.767247,282.662109 195.750205,285.406982 C194.733162,288.151855 192.113974,291.651123 189.99288,293.195557 C187.871787,294.73999 185.81539,297.054199 182.660849,297.054199 C182.273398,298.152844 183.454763,304.755193 189.670859,307.049561 C194.187216,308.716553 205.759238,305.360596 208.032187,303.475098 C205.136191,301.15918 204.097129,295.177979 204.61666,290.29248 C204.963014,287.035482 205.218873,284.671875 205.384238,283.20166 C207.186647,283.895345 208.58069,284.242187 209.566367,284.242188 C211.044882,284.242188 215.920371,279.180664 215.920371,273.639404 C215.920371,268.098145 214.754355,258.314941 212.855918,253.835938 C210.95748,249.356934 207.328086,245.567383 204.61666,245.567383 C201.905234,245.567383 201.866171,249.302734 199.921347,251.569336 C197.976523,253.835938 194.992148,254.210449 194.036093,256.71167 Z" id="Path-2" fill="url(#linearGradient-1)"></path>
                <path d="M539.453574,239.717041 C538.116009,243.431722 540.561972,245.817383 546.791464,246.874023 C553.020957,247.930664 557.877402,245.842529 561.3608,240.609619 L560.838828,237.896729 C556.118613,240.578532 552.051067,241.779297 548.636191,241.499023 C545.221315,241.21875 542.160442,240.624756 539.453574,239.717041 Z" id="Path-17" fill="#F3DED2"></path>
                <path d="M543.264609,200.416992 C542.182578,204.483398 540.884563,208.359863 539.370566,212.046387 C537.09957,217.576172 533.630332,232.548648 533.630332,235.75984 C533.630332,238.971032 547.77602,240.352205 552.876531,237.886719 C557.977042,235.421232 567.336849,232.636441 571.639365,222.105225 C575.941881,211.574008 572.892694,207.182337 568.422812,203.939453 C563.95293,200.696569 562.382507,200.748997 557.844199,199.623915 C554.81866,198.87386 549.958797,199.138219 543.264609,200.416992 Z" id="Path-6" fill="url(#linearGradient-1)"></path>
                <path d="M542.482252,199.623915 C544.917886,203.328089 547.431113,205.653483 550.021933,206.600098 C553.908164,208.02002 566.986289,207.207031 566.986289,209.492188 C566.986289,211.015625 566.221803,214.219856 564.692832,219.104882 C567.030071,216.847461 568.954876,216.190267 570.467246,217.133301 C571.499868,217.777189 572.753379,219.70298 571.648398,221.789062 C571.151469,222.72721 569.166928,225.895154 566.986289,226.592285 C565.594362,227.037272 564.225546,226.553548 562.879843,225.141113 C557.869105,228.204999 554.534667,229.369387 552.876531,228.634277 C549.063542,226.943848 549.193808,219.464012 544.313437,218.912109 C541.696851,218.61621 539.649776,221.200049 538.220664,221.789063 C536.984242,222.298658 536.22239,220.710576 535.809043,221.789063 C535.377823,222.91418 532.786093,235.233052 533.630332,236.96582 C534.019996,237.765592 544.515975,242.582584 551.317343,242 C559.251678,241.32037 562.430136,236.39624 563.900351,235.035645 C565.370566,233.675049 568.895812,227.694237 571.307578,223.084473 C573.719343,218.474709 578.865465,199.739033 574.395583,196.496149 C569.9257,193.253265 565.070495,195.242758 560.532187,194.117676 C555.993879,192.992594 554.371054,191.848145 551.995566,189.988281 C549.620078,188.128418 549.976415,185.237305 548.556113,185.237305 C547.135811,185.237305 543.11298,189.390137 542.482252,193.259766 C542.061766,195.839518 542.061766,197.960901 542.482252,199.623915 Z" id="Path-6" fill="#2C2E3C"></path>
                <path d="M539.453574,239.717041 C540.072877,243.815023 542.750612,246.194661 547.486777,246.855957 C554.591025,247.8479 559.543418,243.509966 561.3608,240.609619 C562.68681,240.609619 563.589479,241.089325 564.068808,242.048737 L561.3608,255.178711 L570.342246,366.06543 C563.89625,369.601237 556.138112,370.248047 547.067832,368.005859 C537.997551,365.763672 527.256015,361.247721 514.843222,354.458008 L529.95748,269.667969 L538.997519,243.655273 C538.498285,242.749316 538.275873,242.06141 538.330283,241.591553 C538.384693,241.121696 538.759123,240.496859 539.453574,239.717041 Z" id="Path-9" fill="url(#linearGradient-4)"></path>
                <path d="M548.458457,253.767578 C549.778769,251.851563 552.338339,251.5 556.630332,249.794922 C559.49166,248.658203 561.971152,246.076141 564.068808,242.048737 L561.3608,255.178711 L570.342246,366.06543 C565.716595,368.229145 561.616741,369.311002 558.042685,369.311002 C554.468629,369.311002 550.810345,368.875954 547.067832,368.005859 C552.428032,361.51237 555.009167,356.162109 554.811236,351.955078 C554.514338,345.644531 540.698967,337.02579 539.898948,328.787775 C539.098929,320.549759 557.819493,306.721198 558.042685,302 C558.562704,291 542.592734,282.575684 542.592734,281.582031 C542.592734,278.208984 550.229865,271 551.643027,265 C553.056189,259 547.138144,255.683594 548.458457,253.767578 Z" id="Path-9" fill="url(#linearGradient-5)"></path>
                <path d="M564.068808,242.048737 C562.095485,248.030569 560.098415,252.337565 558.077597,254.969727 C555.046371,258.917969 565.421347,295.376953 565.421347,314.390625 C565.421347,327.066406 566.236451,355.286458 567.86666,399.050781 C582.412233,393.725911 592.98873,388.209961 599.596152,382.50293 C609.507285,373.942383 618.773886,318.951172 618.773886,312.84375 C618.773886,306.736328 599.95455,261.996094 589.685019,254.969727 C582.838665,250.285482 574.299928,245.978485 564.068808,242.048737 Z" id="Path-8" fill="url(#linearGradient-6)"></path>
                <path d="M538.997519,243.655273 L537.658652,256.59375 C538.654095,271.310547 536.724082,286.036784 531.868613,300.772461 C524.58541,322.875977 522.392199,343.968522 519.688925,357.992188 C517.886743,367.341298 516.978214,380.005686 516.963339,395.985352 C505.048693,391.980859 498.295763,382.145898 496.70455,366.480469 C494.317731,342.982325 506.038535,333.547852 512.734824,315.351562 C519.431113,297.155273 517.024863,281.863281 515.074668,280.186523 C513.124472,278.509766 466.299277,272.77832 459.24166,266.421875 C452.184043,260.06543 435.51705,220.132721 433.732871,213.643021 C431.948691,207.15332 441.634238,204.165573 444.943808,208.904297 C448.253379,213.643021 467.228964,242.774414 472.39498,245.287109 C477.560996,247.799805 515.157675,247.6875 521.105918,247.6875 C525.071412,247.6875 531.03528,246.343424 538.997519,243.655273 Z" id="Path-7" fill="url(#linearGradient-7)"></path>
                <path d="M528.354209,552.828369 C521.731145,557.922119 517.104998,561.318441 514.475766,563.017334 C510.531918,565.565674 505.956723,567.860596 506.713071,570.51001 C507.172156,572.118143 511.716964,573.833382 521.66877,571.252686 C524.506855,570.516715 527.723257,567.735714 530.603696,566.445557 C536.267742,563.908612 538.622536,562.51227 538.874203,560.677979 C539.357781,557.153402 538.902548,554.307861 537.508505,552.141357 C535.455266,553.391587 533.650896,554.016701 532.095395,554.016701 C530.539893,554.016701 529.292831,553.62059 528.354209,552.828369 Z" id="Path-11" fill="#2C2E3C"></path>
                <path d="M527.64498,545.79248 L528.354209,552.828369 C529.948222,553.842745 531.508362,554.276746 533.034629,554.130371 C534.560895,553.983996 536.052188,553.320992 537.508505,552.141357 L538.158164,545.292969 C538.092083,546.977865 536.316367,547.820313 532.831015,547.820313 C529.345664,547.820313 527.616985,547.144368 527.64498,545.79248 Z" id="Path-11" fill="url(#linearGradient-6)"></path>
                <path d="M589.511191,544.416016 L591.511679,550.268555 C593.986877,551.151095 595.98761,551.519177 597.513877,551.372803 C599.040143,551.226428 600.431501,550.353463 601.687949,548.753906 L601.242148,542.278809 C600.31832,543.677409 598.779746,544.656169 596.626425,545.215088 C594.473105,545.774007 592.10136,545.50765 589.511191,544.416016 Z" id="Path-11" fill="url(#linearGradient-6)"></path>
                <path d="M591.511679,550.268555 C591.511679,553.736328 591.511679,556.1014 591.511679,557.36377 C591.511679,559.257324 594.610312,560.833008 595.59957,563.00293 C596.588828,565.172852 597.306601,570.474656 600.046347,572.575951 C602.786093,574.677246 608.870921,576.671343 611.161093,575.828125 C613.451266,574.984907 616.077109,570.166992 613.656211,567.564941 C611.235312,564.962891 605.550254,557.12217 604.434043,555.105469 C603.689902,553.761001 602.774537,551.643814 601.687949,548.753906 C600.446494,550.066152 599.239625,550.864533 598.067343,551.149048 C596.895061,551.433563 594.70984,551.140065 591.511679,550.268555 Z" id="Path-12" fill="#2C2E3C"></path>
                <path d="M443.986289,208.121094 C439.275188,201.016439 436.59542,196.426839 435.946982,194.352295 C434.974326,191.240479 433.954659,184.780029 432.838095,183.29126 C431.721532,181.80249 425.836386,174.14209 424.515097,172.589844 C423.3921,171.27055 420.19747,166.683716 419.709311,166.683716 C419.221152,166.683716 417.834433,168.737305 418.92623,170.601563 C420.018027,172.46582 421.059165,173.809082 422.124106,176.108398 C422.834067,177.641276 423.547975,179.143107 424.26583,180.613892 C420.232545,183.142863 418.215903,185.463582 418.215903,187.57605 C418.215903,190.744751 426.666464,196.870117 427.573691,198.034668 C428.178509,198.811035 430.159095,203.983398 433.51545,213.551758 C434.023588,210.972656 435.228549,209.162435 437.130332,208.121094 C439.032115,207.079753 441.317434,207.079753 443.986289,208.121094 Z" id="Path-13" fill="url(#linearGradient-1)"></path>
                <path d="M211.630332,49 L735.630332,49 C740.04861,49 743.630332,52.581722 743.630332,57 L743.630332,88 L203.630332,88 L203.630332,57 C203.630332,52.581722 207.212054,49 211.630332,49 Z" id="Rectangle" fill="#4BAFFF"></path>
                <circle id="Oval" fill="#004FB3" cx="377.130332" cy="109.5" r="28.5"></circle>
                <path d="M334.130332,124.673767 C292.212526,147.772766 253.812786,159.322266 218.931113,159.322266 C166.608603,159.322266 130.955742,121 134.761191,81 C138.56664,41 172.954903,30.9667969 199.257461,37.7519531 C225.560019,44.5371094 237.185019,78.3105469 225.407675,103 C213.630332,127.689453 182.594551,138 143.628379,124.673767 C104.662206,111.347534 69.3568941,81 31.2045504,96.9882813 C-6.94779336,112.976563 -6.56107461,164.758966 13.3373629,188.688654 C26.6029879,204.641779 45.3201103,213.678178 69.4887301,215.797852" id="Path-14" stroke="#004FB3" stroke-width="2" stroke-linecap="round" stroke-dasharray="4,8"></path>
                <polygon id="Path-15" fill="#FF647F" points="73.0531832 217.277344 78.8734957 212.294434 78.8734957 200.26123 112.691855 227.549805 77.0346285 232.97998 78.0922457 218.780273"></polygon>
                <polygon id="Path-15" fill="#D4567B" points="73.0531832 217.277344 78.8734957 212.294434 104.096152 224.28418 78.0922457 218.780273"></polygon>
                <circle id="Oval" stroke="#004FB3" stroke-width="2" fill="#FFFFFF" cx="68.6303316" cy="95" r="19"></circle>
                <circle id="Oval" fill="#0070FF" cx="240.630332" cy="68" r="4"></circle>
                <circle id="Oval-Copy-10" fill="#0070FF" cx="256.630332" cy="68" r="4"></circle>
                <circle id="Oval-Copy-11" fill="#0070FF" cx="272.630332" cy="68" r="4"></circle>
                <path d="M450.338443,29.6064453 C451.897525,29.2685547 458.03815,29.2685547 462.406802,27.3579102 C466.775454,25.4472656 471.693423,20.5424805 472.654361,20.5424805 C473.615298,20.5424805 480.3277,26.0078125 484.538638,27.3579102 C488.749575,28.7080078 495.328677,28.9599609 496.35065,29.6064453 C497.372622,30.2529297 495.5694,45.5083008 492.294986,55.9863281 C489.020571,66.4643555 476.467312,79.9775391 473.200241,79.9775391 C469.933169,79.9775391 458.074771,68.5 453.898013,55.9863281 C449.721255,43.4726563 448.779361,29.9443359 450.338443,29.6064453 Z" id="Path-16" fill="#004FB3"></path>
                <path d="M457.156038,36.1102276 C457.152369,36.1707097 457.149095,36.233859 457.14627,36.2995305 C457.099932,37.3770352 457.178162,38.9273006 457.379131,40.7278454 C457.845194,44.9034604 458.873248,49.74204 460.300944,54.0646759 C461.671135,58.2132057 464.348191,62.5967285 467.563853,66.2956712 C468.932366,67.8698566 470.314532,69.2135008 471.504229,70.1477036 C472.043075,70.5708294 472.519828,70.8914159 472.898729,71.0922119 C473.007925,71.1500796 473.094272,71.1902986 473.147699,71.2168221 C473.220291,71.181682 473.30716,71.1347168 473.4058,71.0760245 C473.799742,70.841623 474.300764,70.4690981 474.871273,69.9803244 C476.093857,68.9328966 477.534652,67.4411844 478.959238,65.7351338 C482.20492,61.8481815 484.837108,57.5308296 485.89771,54.1010553 C487.016556,50.4829283 488.001688,45.7550337 488.614486,41.3542403 C488.883556,39.4219238 489.057812,37.6975029 489.114036,36.4461435 C489.123152,36.2432474 489.128974,36.0558879 489.131673,35.8858577 C488.613247,35.8097055 485.758067,35.41808 484.747968,35.2464272 C483.382261,35.0143438 482.237681,34.7569189 481.251722,34.4374617 C480.181124,34.0905809 478.971603,33.4825994 477.551058,32.62614 C477.079827,32.3420307 476.589483,32.032891 476.061365,31.6889 C475.362609,31.2337638 473.328339,29.8592819 473.220865,29.7881534 C473.074744,29.6914466 472.943861,29.6060343 472.826968,29.5311492 C472.737919,29.5981295 472.639787,29.6731089 472.53181,29.7566473 C472.380212,29.8739328 472.215652,30.0029049 471.980653,30.1882489 C471.677795,30.427384 471.505268,30.5635752 471.351404,30.684572 C470.798684,31.1192238 470.35888,31.4582274 469.910121,31.7920402 C468.919695,32.5287773 468.022163,33.1350376 467.15117,33.6357473 C466.662833,33.9164786 466.189156,34.1598124 465.726869,34.3641329 C464.717184,34.8103909 463.582761,35.1542448 462.322532,35.4213244 C461.300632,35.6378951 460.240079,35.7962217 459.049588,35.9264299 C458.627334,35.9726133 457.729366,36.0568438 457.156038,36.1102276 Z" id="Path-16" stroke="#0070FF" stroke-width="4" fill="#004FB3"></path>
                <path d="M583.302207,283.516602 C586.556463,291.351389 588.787303,297.274115 589.994727,301.284782 C591.805862,307.300781 595.740208,317.750977 593.775839,322.740234 C591.81147,327.729492 588.132821,330.355469 585.157439,341.964844 C582.182056,353.574219 587.019344,367.240234 587.019344,372.645508 C587.019344,375.337239 579.040795,372.774482 576.16006,363.973633 C573.255983,355.101471 570.342246,341.964844 573.71149,333.379883 C577.080734,324.794922 582.010086,328.703704 583.302207,322.740234 C584.819833,315.735995 579.101196,309.769733 578.379355,304.514021 C577.488407,298.027042 579.129358,291.027902 583.302207,283.516602 Z" id="Path-20" fill="url(#linearGradient-8)"></path>
                <path d="M489.452597,275 C472.581343,272.313865 462.973922,270.313865 460.630332,269 C454.595248,265.616608 432.458141,216.956742 434.331504,215.410156 C439.067832,211.5 457.680136,263.433594 462.674277,265 C465.130638,265.770435 475.203152,265.486015 484.782675,267.336914 C494.679718,269.249162 504.069314,273.281172 505.180136,273 C510.447714,271.666667 513.668743,267.163737 514.843222,259.491211 C514.682496,265.841735 514.682496,270.344664 514.843222,273 C515.003949,275.655336 515.449665,278.516013 516.180372,281.582031 C514.924355,280.410156 511.84485,279.364583 506.941855,278.445313 C502.03886,277.526042 496.209108,276.377604 489.452597,275 Z" id="Path-21" fill-opacity="0.8" fill="url(#linearGradient-8)"></path>
                <text id="€" font-family="NotoSansCJKsc-Bold, Noto Sans CJK SC" font-size="42" font-weight="bold" letter-spacing="1.68" fill="#FFFFFF">
                    <tspan x="363.630332" y="125">€</tspan>
                </text>
                <text id="$" font-family="NotoSansCJKsc-Bold, Noto Sans CJK SC" font-size="42" font-weight="bold" letter-spacing="1.68" fill="#0070FF">
                    <tspan x="619.630332" y="183">$</tspan>
                </text>
                <text id="$" font-family="NotoSansCJKsc-Bold, Noto Sans CJK SC" font-size="32" font-weight="bold" letter-spacing="1.28" fill="#FFFFFF">
                    <tspan x="307.630332" y="263">$</tspan>
                </text>
                <text id="SEND" font-family="NotoSansCJKsc-Bold, Noto Sans CJK SC" font-size="16" font-weight="bold" letter-spacing="0.64" fill="#FFFFFF">
                    <tspan x="353.630332" y="176">SEND</tspan>
                </text>
                <text id="¥" font-family="NotoSansCJKsc-Bold, Noto Sans CJK SC" font-size="32" font-weight="bold" letter-spacing="1.28" fill="#FFFFFF">
                    <tspan x="366.630332" y="263">¥</tspan>
                </text>
                <text id="£" font-family="NotoSansCJKsc-Bold, Noto Sans CJK SC" font-size="32" font-weight="bold" letter-spacing="1.28" fill="#FFFFFF">
                    <tspan x="426.630332" y="263">£</tspan>
                </text>
                <path d="M59.4314911,92.2659433 C59.8435312,91.8546648 60.5115802,91.8546648 60.9236204,92.2659433 L66.146073,97.4787422 L77.3370429,86.3084589 C77.749083,85.8971804 78.4171321,85.8971804 78.8291722,86.3084589 L80.3213015,87.79783 C80.7333417,88.2091085 80.7333417,88.8759226 80.3213015,89.2872011 L66.8921377,102.691541 C66.4800975,103.10282 65.8120485,103.10282 65.4000083,102.691541 L57.9393617,95.2446856 C57.5273216,94.8334071 57.5273216,94.1665929 57.9393617,93.7553144 L59.4314911,92.2659433 Z" id="Path" fill="#FF647F"></path>
            </g>
        </g>
    </g>
</svg>